# xmcd
#
# Track frame offsets:
#	150
#	1269
#	16884
#	32517
#	43891
#	59850
#	76045
#	96906
#	110822
#	126173
#	142091
#	160525
#	175109
#	192913
#
# Disc length: 3090 seconds
# Revision: 0
# Processed by: cddbd v1.5.2PL0 Copyright (c) Steve Scherf et al.
# Submitted via: dBpowerAMP V12.0
#
DISCID=b60c100e
DTITLE=Blue and Lonesome - Live From Harrietville, Australia
DYEAR=2012
DGENRE=Country
TTITLE0=Caroling Australian Magpies
TTITLE1=Chalk Up Another One
TTITLE2=We'll Meet Again Sweetheart
TTITLE3=Field Of Flowers
TTITLE4=Toy Heart
TTITLE5=Billy in the Lowground
TTITLE6=Banks of the Ohio
TTITLE7=Let Me Love You One More Time
TTITLE8=Bluest Man in Town
TTITLE9=Waves On the Sea
TTITLE10=Love of the Mountains
TTITLE11=My Old Kentucky Home
TTITLE12=Out in the Cold World
TTITLE13=The Old Swinging Bridge
EXTD=
EXTT0=
EXTT1=
EXTT2=
EXTT3=
EXTT4=
EXTT5=
EXTT6=
EXTT7=
EXTT8=
EXTT9=
EXTT10=
EXTT11=
EXTT12=
EXTT13=
PLAYORDER=
